<svg xmlns="http://www.w3.org/2000/svg" width="40" height="40" viewBox="0 0 40 40" aria-hidden="true" focusable="false">
  <path fill="#00c73c" d="M0 0h40v40H0z"/>
  <path fill="#fff" d="M30.08 29.32H22.9l-2.36 4.11a.61.61 0 01-1.06 0l-2.38-4.11H9.92a5.27 5.27 0 01-5.28-5.27V11.53a5.27 5.27 0 015.28-5.27h20.16a5.27 5.27 0 015.28 5.27v12.52a5.27 5.27 0 01-5.28 5.27z"/>
  <path fill="#00c73c" d="M14.5 17.1a3.07 3.07 0 00-.57-.94 2.87 2.87 0 00-.89-.63 2.78 2.78 0 00-1.13-.23 2.32 2.32 0 00-1.75.73v-2.54H8.48v7.58h1.68v-.62a2.08 2.08 0 001.72.79 2.72 2.72 0 002-.87 3 3 0 00.6-.95 3.31 3.31 0 000-2.32zm-2.9 2.68a1.5 1.5 0 111.46-1.5 1.48 1.48 0 01-1.46 1.5z"/>
  <path fill="#00c73c" d="M18.47 18.22a2.7 2.7 0 01.23-1.14 2.73 2.73 0 01.63-.93 2.93 2.93 0 011-.62 3.23 3.23 0 011.22-.23 3.38 3.38 0 011.21.22 2.93 2.93 0 011 .62 2.58 2.58 0 01.64.94 2.92 2.92 0 01.23 1.2 2.91 2.91 0 01-.87 2.14 3 3 0 01-1 .61 3.53 3.53 0 01-1.23.21 3.38 3.38 0 01-1.25-.24 2.81 2.81 0 01-1.58-1.57 3.08 3.08 0 01-.23-1.21zm1.69 0a1.48 1.48 0 00.11.57 1.45 1.45 0 00.29.45 1.48 1.48 0 00.43.31 1.35 1.35 0 00.53.1 1.3 1.3 0 00.52-.1 1.35 1.35 0 00.43-.31 1.29 1.29 0 00.29-.45 1.47 1.47 0 00.11-.56 1.47 1.47 0 00-.4-1A1.19 1.19 0 0022 17a1.31 1.31 0 00-.52-.11A1.36 1.36 0 0021 17a1.28 1.28 0 00-.43.3 1.74 1.74 0 00-.29.45 1.41 1.41 0 00-.12.5z"/>
  <path fill="#00c73c" d="M14.87 13.31v1.55s.87.16.87 1v5.26h1.71v-5.21a2.5 2.5 0 00-2.58-2.6z"/>
  <path fill="#00c73c" d="M31.23 15.42h-1.47V16a2.11 2.11 0 00-1.62-.72 2.72 2.72 0 00-2 .83 3.12 3.12 0 00-.81 2.13 3.19 3.19 0 00.76 2.11 2.69 2.69 0 002 .77 2.35 2.35 0 001.7-.79v.42a1.29 1.29 0 01-.39 1 1.45 1.45 0 01-.94.37h-.07v1.54a3.22 3.22 0 002.34-.88 2.92 2.92 0 00.74-2.25v-5.1zm-1.76 3.73a1.6 1.6 0 01-1 .42 1.45 1.45 0 01-1-.41 1.41 1.41 0 01-.45-1 1.46 1.46 0 01.45-1 1.39 1.39 0 011-.41 1.5 1.5 0 011 .4 1.57 1.57 0 01.46 1 1.49 1.49 0 01-.46 1z"/>
</svg>