<svg xmlns="http://www.w3.org/2000/svg" width="40" height="40" viewBox="0 0 40 40" aria-hidden="true" focusable="false">
  <g fill="none" fill-rule="evenodd">
    <path fill="#BC2A8D" d="M0 40h40V0H0z"/>
    <g transform="translate(8 8)" fill="#FFF" fill-rule="nonzero">
      <path d="M16.5 0h-9C3.3585 0 0 3.3585 0 7.5v9C0 20.6415 3.3585 24 7.5 24h9c4.1415 0 7.5-3.3585 7.5-7.5v-9C24 3.3585 20.6415 0 16.5 0zm5.4130435 16.5752508c0 2.9434114-2.3943813 5.3377927-5.3377927 5.3377927H7.42474916c-2.94341137 0-5.33779264-2.3943813-5.33779264-5.3377927V7.42474916c0-2.94341137 2.39438127-5.33779264 5.33779264-5.33779264h9.15050164c2.9434114 0 5.3377927 2.39438127 5.3377927 5.33779264v9.15050164z"/>
      <path d="M12 6.26086957c-3.16943478 0-5.73913043 2.56969565-5.73913043 5.73913043 0 3.1694348 2.56969565 5.7391304 5.73913043 5.7391304 3.1694348 0 5.7391304-2.5696956 5.7391304-5.7391304 0-3.16943478-2.5696956-5.73913043-5.7391304-5.73913043zm0 9.39130433c-2.01307826 0-3.65217391-1.6390956-3.65217391-3.6521739 0-2.01453913 1.63909565-3.65217391 3.65217391-3.65217391 2.0130783 0 3.6521739 1.63763478 3.6521739 3.65217391 0 2.0130783-1.6390956 3.6521739-3.6521739 3.6521739z"/>
      <circle cx="18.7826087" cy="5.2173913" r="1.04347826"/>
    </g>
  </g>
</svg>